<?xml version="1.0" encoding="utf-8"?>
				<!-- Generator: Adobe Illustrator 16.0.2, SVG Export Plug-In . SVG Version: 6.00 Build 0)  -->
				<!DOCTYPE svg PUBLIC "-//W3C//DTD SVG 1.1//EN" "http://www.w3.org/Graphics/SVG/1.1/DTD/svg11.dtd">
				<svg class="svg" version="1.1" xmlns="http://www.w3.org/2000/svg" xmlns:xlink="http://www.w3.org/1999/xlink" x="0px" y="0px" width="8.443px"
				height="18.281px" viewBox="0 0 8.443 18.281" enable-background="new 0 0 8.443 18.281" xml:space="preserve">

				<path fill="#000" d="M1.859,9.152c0.046,0.058,0.02,0.465,0.02,0.541l0.003,8.588
				h3.724c0.021-2.261,0-4.58,0-6.852c0-0.033-0.007-2.199,0.003-2.245c0.007-0.03,0.008-0.025,0.016-0.038
				c0.005,0,2.368,0.02,2.451-0.001l0.041-0.012l0.327-3.135H5.617C5.606,5.537,5.62,5.061,5.62,4.596
				c0.001-0.424-0.01-0.947,0.241-1.18l2.567-0.258L8.425,0.014C7.938-0.016,7.363,0.012,6.867,0.012
				c-0.516,0-1.037-0.011-1.544,0.022C4.356,0.099,3.576,0.387,3.012,0.867C2.193,2.179,1.877,1.053,1.871,6L0,6.001l0.004,3.148
				L1.859,9.152L1.859,9.152z"/>
			</svg>