<?xml version="1.0" encoding="utf-8"?>
						<!-- Generator: Adobe Illustrator 16.0.2, SVG Export Plug-In . SVG Version: 6.00 Build 0)  -->
						<!DOCTYPE svg PUBLIC "-//W3C//DTD SVG 1.1//EN" "http://www.w3.org/Graphics/SVG/1.1/DTD/svg11.dtd">
						<svg class="svg" version="1.1" id="Layer_1" xmlns="http://www.w3.org/2000/svg" xmlns:xlink="http://www.w3.org/1999/xlink" x="0px" y="0px"
						width="35.904px" height="35.88px" viewBox="0 0 35.904 35.88" enable-background="new 0 0 35.904 35.88" xml:space="preserve">
						<path fill="#000" d="M31.385,0.001c-4.486-0.002-8.972,0-13.462,0c-4.449,0-8.905-0.002-13.358,0
						C1.788,0.005,0.026,1.672,0.02,4.424c-0.025,9.009-0.026,18.014,0.001,27.022c0.009,2.686,1.694,4.396,4.364,4.406
						c9.041,0.035,18.079,0.035,27.12,0.006c2.712-0.008,4.392-1.775,4.392-4.479c0.011-8.978,0.011-17.951,0-26.926
						C35.894,1.71,34.152,0.005,31.385,0.001z M26.301,4.245c1.325-0.014,2.652-0.017,3.976,0c0.886,0.012,1.355,0.512,1.372,1.368
						c0.031,1.324,0.031,2.649,0,3.975c-0.021,0.911-0.538,1.388-1.458,1.397c-0.658,0.006-1.323,0-1.986,0
						c-0.629,0.002-1.255,0.012-1.889,0c-0.859-0.02-1.377-0.447-1.396-1.332c-0.025-1.359-0.02-2.716-0.002-4.075
						C24.93,4.692,25.432,4.251,26.301,4.245z M17.894,11.083c3.771-0.031,6.844,3.008,6.873,6.803c0.028,3.794-3.003,6.854-6.792,6.862
						c-3.792,0.01-6.817-3.021-6.819-6.831C11.148,14.173,14.165,11.114,17.894,11.083z M31.661,16.228c0,4.521,0.002,9.041,0,13.563
						c-0.004,1.408-0.38,1.83-1.734,1.83c-7.98,0.014-15.957,0.014-23.936,0.002c-1.268-0.002-1.746-0.441-1.748-1.635
						c-0.016-4.723-0.007-9.439-0.004-14.163c0-0.159,0.033-0.319,0.062-0.534c0.954,0,1.865,0,2.867,0
						c-0.792,4.246,0.222,7.938,3.431,10.869c2.298,2.096,5.064,3.018,8.158,2.809c5.898-0.406,11.473-5.829,9.996-13.696
						c0.966,0,1.855,0,2.908,0C31.661,15.595,31.661,15.911,31.661,16.228z"/>
					</svg>