<?xml version="1.0" encoding="utf-8"?>
				<!DOCTYPE svg PUBLIC "-//W3C//DTD SVG 1.1//EN" "http://www.w3.org/Graphics/SVG/1.1/DTD/svg11.dtd">
				<svg class="header_logo-icon" version="1.1" id="Layer_1" xmlns="http://www.w3.org/2000/svg" xmlns:xlink="http://www.w3.org/1999/xlink" x="0px" y="0px"
				width="108.646px" height="20.491px" viewBox="0 0 108.646 20.491" enable-background="new 0 0 108.646 20.491"
				xml:space="preserve">
				<g>
					<path d="M0,13.993L1.848,11.4c1.128,1.177,2.88,2.16,5.088,2.16c1.873,0,2.785-0.864,2.785-1.776c0-2.832-9.217-0.888-9.217-6.912
					C0.504,2.208,2.809,0,6.577,0c2.544,0,4.656,0.768,6.241,2.231l-1.896,2.496C9.625,3.528,7.897,2.976,6.265,2.976
					c-1.464,0-2.28,0.648-2.28,1.608c0,2.544,9.193,0.84,9.193,6.816c0,2.929-2.088,5.137-6.409,5.137
					C3.696,16.537,1.488,15.505,0,13.993z"/>
					<path d="M14.664,10.44c0-3.552,2.568-6.072,6.145-6.072c2.376,0,3.816,1.032,4.584,2.088l-1.992,1.872
					c-0.552-0.815-1.392-1.248-2.448-1.248c-1.848,0-3.145,1.345-3.145,3.36c0,2.017,1.296,3.385,3.145,3.385
					c1.056,0,1.896-0.48,2.448-1.248l1.992,1.848c-0.768,1.08-2.208,2.112-4.584,2.112C17.232,16.537,14.664,14.017,14.664,10.44z"/>
					<path d="M35.208,16.249v-1.464c-0.792,0.888-2.184,1.752-4.081,1.752c-2.544,0-3.744-1.393-3.744-3.648V4.656h3.048v7.032
					c0,1.608,0.84,2.137,2.136,2.137c1.176,0,2.112-0.648,2.64-1.32V4.656h3.048v11.593H35.208z"/>
					<path d="M41.28,16.249V0.239h3.048v16.01H41.28z"/>
					<path d="M50.4,14.761v5.904h-3.048V4.656H50.4V6.12c0.888-1.128,2.16-1.752,3.576-1.752c2.976,0,5.136,2.208,5.136,6.072
					s-2.16,6.097-5.136,6.097C52.608,16.537,51.336,15.961,50.4,14.761z M55.944,10.44c0-1.992-1.176-3.36-2.928-3.36
					c-0.984,0-2.112,0.576-2.616,1.32v4.104c0.504,0.72,1.632,1.32,2.616,1.32C54.768,13.825,55.944,12.457,55.944,10.44z"/>
					<path d="M61.943,13.369V7.32h-1.92V4.656h1.92V1.487h3.072v3.169h2.352V7.32h-2.352v5.232c0,0.72,0.383,1.272,1.056,1.272
					c0.456,0,0.888-0.168,1.056-0.336l0.648,2.304c-0.456,0.408-1.272,0.744-2.545,0.744C63.095,16.537,61.943,15.433,61.943,13.369z"
					/>
					<path d="M86.711,16.249l-0.984-2.712h-6.863l-1.008,2.712h-3.889l6.192-16.01h4.272l6.168,16.01H86.711z M82.295,3.647
					l-2.496,6.889h4.992L82.295,3.647z"/>
					<path d="M92.014,16.249V4.656h3.049V6.24c0.816-1.032,2.256-1.872,3.697-1.872v2.977c-0.217-0.049-0.504-0.072-0.84-0.072
					c-1.01,0-2.354,0.576-2.857,1.32v7.656H92.014z"/>
					<path d="M101.254,13.369V7.32h-1.92V4.656h1.92V1.487h3.072v3.169h2.354V7.32h-2.354v5.232c0,0.72,0.385,1.272,1.057,1.272
					c0.455,0,0.889-0.168,1.057-0.336l0.646,2.304c-0.455,0.408-1.271,0.744-2.543,0.744
					C102.407,16.537,101.254,15.433,101.254,13.369z"/>
				</g>
			</svg>