<?xml version="1.0" encoding="utf-8"?>
					<!DOCTYPE svg PUBLIC "-//W3C//DTD SVG 1.1//EN" "http://www.w3.org/Graphics/SVG/1.1/DTD/svg11.dtd">
					<svg class="svg" version="1.1" xmlns="http://www.w3.org/2000/svg" xmlns:xlink="http://www.w3.org/1999/xlink" x="0px" y="0px"
					width="21.754px" height="12.544px" viewBox="0 0 21.754 12.544" enable-background="new 0 0 21.754 12.544" xml:space="preserve">

					<path fill="#000" d="M18.652,7.904c1.335,1.229,2.266,2.23,2.793,3.003
					c0.246,0.387,0.324,0.729,0.237,1.028c-0.088,0.298-0.29,0.447-0.606,0.447l-3.478,0.158c-0.491,0.035-1.089-0.264-1.791-0.896
					c-0.703-0.632-1.177-1.159-1.423-1.581c-0.141-0.246-0.396-0.386-0.764-0.422c-0.369-0.035-0.606,0.141-0.712,0.527l-0.105,1.37
					c-0.035,0.28-0.142,0.491-0.315,0.632c-0.176,0.142-0.326,0.221-0.448,0.238c-0.123,0.017-0.325,0.043-0.606,0.078
					c-0.913,0.035-1.712-0.008-2.397-0.132c-0.685-0.123-1.309-0.377-1.87-0.764c-0.563-0.386-1.01-0.737-1.344-1.054
					S5.006,9.714,4.373,9.011C2.652,6.552,1.37,4.426,0.527,2.636C0.211,1.933,0.035,1.335,0,0.844C0.141,0.703,0.404,0.615,0.791,0.58
					c0.386-0.035,0.947-0.044,1.686-0.027C3.214,0.572,3.652,0.58,3.793,0.58c0.352-0.035,0.633,0.158,0.844,0.58
					c0.878,1.967,1.739,3.494,2.582,4.584C7.781,6.271,8.149,6.184,8.325,5.48c0.07,0,0.105-0.861,0.105-2.582
					c0.034-1.09-0.404-1.773-1.317-2.055C7.324,0.281,8.063,0,9.326,0c0.316,0,0.703,0.018,1.16,0.053
					c0.455,0.035,0.702,0.053,0.736,0.053c1.055,0,1.582,0.422,1.582,1.266c-0.001,0.104-0.019,0.36-0.053,0.764
					c-0.036,0.403-0.063,0.79-0.08,1.159s-0.026,0.755-0.026,1.159s0.053,0.746,0.159,1.027c0.104,0.281,0.245,0.457,0.421,0.527
					c0.192-0.142,0.378-0.272,0.553-0.396c0.177-0.124,0.36-0.325,0.554-0.606s0.342-0.491,0.448-0.633
					c0.104-0.141,0.263-0.402,0.474-0.789s0.334-0.633,0.369-0.738s0.158-0.377,0.369-0.816s0.315-0.658,0.315-0.658l0.079-0.158
					c0.141-0.316,0.255-0.501,0.343-0.554s0.308-0.079,0.658-0.079h3.268c0.386,0,0.614,0.009,0.685,0.026s0.176,0.097,0.316,0.237
					c0.246,0.316,0.026,1.001-0.66,2.055c-0.684,1.054-1.342,1.933-1.975,2.635C18.144,6.518,18.021,7.307,18.652,7.904z"/>
				</svg>