<?xml version="1.0" encoding="utf-8"?>
<!-- Generator: Adobe Illustrator 16.0.2, SVG Export Plug-In . SVG Version: 6.00 Build 0)  -->
<!DOCTYPE svg PUBLIC "-//W3C//DTD SVG 1.1//EN" "http://www.w3.org/Graphics/SVG/1.1/DTD/svg11.dtd">
<svg version="1.1" id="Layer_1" xmlns="http://www.w3.org/2000/svg" xmlns:xlink="http://www.w3.org/1999/xlink" x="0px" y="0px"
	 width="129.646px" height="51.491px" viewBox="0 0 129.646 51.491" enable-background="new 0 0 129.646 51.491"
	 xml:space="preserve">
<g>
	<g>
		<path d="M0,13.993L1.848,11.4c1.128,1.177,2.88,2.16,5.088,2.16c1.873,0,2.785-0.864,2.785-1.776c0-2.832-9.217-0.888-9.217-6.912
			C0.504,2.208,2.809,0,6.577,0c2.544,0,4.656,0.768,6.241,2.231l-1.896,2.496C9.625,3.528,7.897,2.976,6.265,2.976
			c-1.464,0-2.28,0.648-2.28,1.608c0,2.544,9.193,0.84,9.193,6.816c0,2.929-2.088,5.137-6.409,5.137
			C3.696,16.537,1.488,15.505,0,13.993z"/>
		<path d="M14.664,10.44c0-3.552,2.568-6.072,6.145-6.072c2.376,0,3.816,1.032,4.584,2.088l-1.992,1.872
			c-0.552-0.815-1.392-1.248-2.448-1.248c-1.848,0-3.145,1.345-3.145,3.36c0,2.017,1.296,3.385,3.145,3.385
			c1.056,0,1.896-0.48,2.448-1.248l1.992,1.848c-0.768,1.08-2.208,2.112-4.584,2.112C17.232,16.537,14.664,14.017,14.664,10.44z"/>
		<path d="M35.208,16.249v-1.464c-0.792,0.888-2.184,1.752-4.081,1.752c-2.544,0-3.744-1.393-3.744-3.648V4.656h3.048v7.032
			c0,1.608,0.84,2.137,2.136,2.137c1.176,0,2.112-0.648,2.64-1.32V4.656h3.048v11.593H35.208z"/>
		<path d="M41.28,16.249V0.239h3.048v16.01H41.28z"/>
		<path d="M50.4,14.761v5.904h-3.048V4.656H50.4V6.12c0.888-1.128,2.16-1.752,3.576-1.752c2.976,0,5.136,2.208,5.136,6.072
			s-2.16,6.097-5.136,6.097C52.608,16.537,51.336,15.961,50.4,14.761z M55.944,10.44c0-1.992-1.176-3.36-2.928-3.36
			c-0.984,0-2.112,0.576-2.616,1.32v4.104c0.504,0.72,1.632,1.32,2.616,1.32C54.768,13.825,55.944,12.457,55.944,10.44z"/>
		<path d="M61.943,13.369V7.32h-1.92V4.656h1.92V1.487h3.072v3.169h2.352V7.32h-2.352v5.232c0,0.72,0.383,1.272,1.056,1.272
			c0.456,0,0.888-0.168,1.056-0.336l0.648,2.304c-0.456,0.408-1.272,0.744-2.545,0.744C63.095,16.537,61.943,15.433,61.943,13.369z"
			/>
		<path d="M86.711,16.249l-0.984-2.712h-6.863l-1.008,2.712h-3.889l6.192-16.01h4.272l6.168,16.01H86.711z M82.295,3.647
			l-2.496,6.889h4.992L82.295,3.647z"/>
		<path d="M92.014,16.249V4.656h3.049V6.24c0.816-1.032,2.256-1.872,3.697-1.872v2.977c-0.217-0.049-0.504-0.072-0.84-0.072
			c-1.01,0-2.354,0.576-2.857,1.32v7.656H92.014z"/>
		<path d="M101.254,13.369V7.32h-1.92V4.656h1.92V1.487h3.072v3.169h2.354V7.32h-2.354v5.232c0,0.72,0.385,1.272,1.057,1.272
			c0.455,0,0.889-0.168,1.057-0.336l0.646,2.304c-0.455,0.408-1.271,0.744-2.543,0.744
			C102.407,16.537,101.254,15.433,101.254,13.369z"/>
	</g>
	<g>
		<path d="M10.451,27.219v6.279H2.222v-6.279h0.975v5.421h2.652v-5.421h0.975v5.421h2.652v-5.421H10.451z"/>
		<path d="M16.678,33.499l-2.262-2.821l-1.04,1.027v1.794h-0.975v-6.279h0.975v3.341l3.302-3.341h1.235l-2.782,2.847l2.795,3.432
			H16.678z"/>
		<path d="M18.68,30.353c0-1.82,1.196-3.289,3.107-3.289s3.107,1.469,3.107,3.289c0,1.82-1.196,3.302-3.107,3.302
			S18.68,32.172,18.68,30.353z M23.867,30.353c0-1.274-0.741-2.418-2.08-2.418c-1.339,0-2.093,1.145-2.093,2.418
			c0,1.287,0.754,2.431,2.093,2.431C23.126,32.784,23.867,31.64,23.867,30.353z"/>
		<path d="M25.739,32.849c0.585,0,0.949-0.676,1.196-2.535l0.403-3.094h4.368v6.279h-0.975v-5.421h-2.535L27.91,30.43
			c-0.286,2.34-0.962,3.225-2.171,3.225V32.849z"/>
		<path d="M37.582,33.499v-0.715c-0.52,0.572-1.235,0.871-2.08,0.871c-1.066,0-2.197-0.715-2.197-2.08
			c0-1.404,1.131-2.067,2.197-2.067c0.858,0,1.573,0.273,2.08,0.858v-1.131c0-0.845-0.676-1.326-1.586-1.326
			c-0.754,0-1.365,0.273-1.924,0.871l-0.455-0.676c0.676-0.702,1.482-1.04,2.509-1.04c1.326,0,2.431,0.598,2.431,2.119v4.316H37.582
			z M37.582,32.172v-1.183c-0.377-0.52-1.04-0.78-1.729-0.78c-0.91,0-1.547,0.572-1.547,1.378c0,0.793,0.637,1.365,1.547,1.365
			C36.542,32.953,37.205,32.692,37.582,32.172z"/>
		<path d="M43.497,30.353c0-1.859,1.261-3.289,3.133-3.289c1.144,0,1.82,0.468,2.301,1.092l-0.65,0.598
			c-0.416-0.572-0.949-0.819-1.599-0.819c-1.339,0-2.171,1.027-2.171,2.418s0.832,2.431,2.171,2.431c0.65,0,1.183-0.26,1.599-0.819
			l0.65,0.598c-0.481,0.624-1.157,1.092-2.301,1.092C44.758,33.655,43.497,32.225,43.497,30.353z"/>
		<path d="M54.572,33.499l-2.262-2.821l-1.04,1.027v1.794h-0.975v-6.279h0.975v3.341l3.302-3.341h1.235l-2.782,2.847l2.795,3.432
			H54.572z"/>
		<path d="M56.782,35.072c0.143,0.065,0.377,0.104,0.533,0.104c0.429,0,0.715-0.143,0.936-0.663l0.416-0.949l-2.626-6.344h1.053
			l2.093,5.148l2.08-5.148h1.066l-3.146,7.553c-0.377,0.91-1.014,1.261-1.846,1.274c-0.208,0-0.533-0.039-0.715-0.091L56.782,35.072
			z"/>
		<path d="M62.606,32.849c0.585,0,0.949-0.676,1.196-2.535l0.403-3.094h4.368v6.279h-0.975v-5.421h-2.535l-0.286,2.353
			c-0.286,2.34-0.962,3.225-2.171,3.225V32.849z"/>
		<path d="M71.499,27.219v2.431h2.353c1.3,0,1.976,0.897,1.976,1.924c0,1.04-0.688,1.924-1.976,1.924h-3.328v-6.279H71.499z
			 M71.499,30.508v2.132h2.248c0.703,0,1.08-0.442,1.08-1.066c0-0.611-0.365-1.066-1.08-1.066H71.499z"/>
		<path d="M81.56,33.499v-5.421h-3.276v5.421h-0.975v-6.279h5.227v6.279H81.56z"/>
		<path d="M85.629,33.499v-5.421h-1.82v-0.858h4.628v0.858h-1.833v5.421H85.629z"/>
		<path d="M89.516,35.072c0.143,0.065,0.377,0.104,0.533,0.104c0.429,0,0.715-0.143,0.936-0.663l0.416-0.949l-2.626-6.344h1.054
			l2.092,5.148L94,27.219h1.066l-3.146,7.553c-0.377,0.91-1.014,1.261-1.846,1.274c-0.208,0-0.533-0.039-0.715-0.091L89.516,35.072z
			"/>
		<path d="M97.055,32.549v3.341h-0.975v-8.671h0.975v0.936c0.455-0.637,1.235-1.092,2.119-1.092c1.651,0,2.795,1.248,2.795,3.289
			c0,2.028-1.144,3.302-2.795,3.302C98.317,33.655,97.563,33.251,97.055,32.549z M100.943,30.353c0-1.391-0.755-2.418-2.015-2.418
			c-0.768,0-1.535,0.455-1.873,1.001v2.834c0.338,0.546,1.105,1.014,1.873,1.014C100.188,32.784,100.943,31.744,100.943,30.353z"/>
		<path d="M103.516,33.499v-6.279h0.976v2.613h3.276v-2.613h0.975v6.279h-0.975V30.69h-3.276v2.808H103.516z"/>
		<path d="M110.329,30.353c0-1.82,1.195-3.289,3.107-3.289c1.91,0,3.106,1.469,3.106,3.289c0,1.82-1.196,3.302-3.106,3.302
			C111.524,33.655,110.329,32.172,110.329,30.353z M115.516,30.353c0-1.274-0.742-2.418-2.08-2.418c-1.34,0-2.094,1.145-2.094,2.418
			c0,1.287,0.754,2.431,2.094,2.431C114.774,32.784,115.516,31.64,115.516,30.353z"/>
		<path d="M122.522,28.077h-3.418v5.421h-0.976v-6.279h4.394V28.077z"/>
		<path d="M123.432,30.353c0-1.82,1.195-3.289,3.107-3.289c1.91,0,3.106,1.469,3.106,3.289c0,1.82-1.196,3.302-3.106,3.302
			C124.627,33.655,123.432,32.172,123.432,30.353z M128.62,30.353c0-1.274-0.742-2.418-2.08-2.418c-1.34,0-2.094,1.145-2.094,2.418
			c0,1.287,0.754,2.431,2.094,2.431C127.877,32.784,128.62,31.64,128.62,30.353z"/>
		<path d="M7.656,49.099v-4.927l-2.041,4.927H5.251l-2.054-4.927v4.927H2.222v-6.279h1.287l1.924,4.654l1.898-4.654h1.3v6.279H7.656
			z"/>
		<path d="M14.507,49.099v-0.715c-0.52,0.572-1.235,0.871-2.08,0.871c-1.066,0-2.197-0.715-2.197-2.08
			c0-1.404,1.131-2.067,2.197-2.067c0.858,0,1.573,0.273,2.08,0.858v-1.131c0-0.845-0.676-1.326-1.586-1.326
			c-0.754,0-1.365,0.273-1.924,0.871l-0.455-0.676c0.676-0.702,1.482-1.04,2.509-1.04c1.326,0,2.431,0.598,2.431,2.119v4.316H14.507
			z M14.507,47.772v-1.183c-0.377-0.52-1.04-0.78-1.729-0.78c-0.91,0-1.547,0.572-1.547,1.378c0,0.793,0.637,1.365,1.547,1.365
			C13.467,48.553,14.13,48.292,14.507,47.772z"/>
		<path d="M17.068,45.953c0-1.859,1.261-3.289,3.133-3.289c1.144,0,1.82,0.468,2.301,1.092l-0.65,0.598
			c-0.416-0.572-0.949-0.819-1.599-0.819c-1.339,0-2.171,1.027-2.171,2.418s0.832,2.431,2.171,2.431c0.65,0,1.183-0.26,1.599-0.819
			l0.65,0.598c-0.481,0.624-1.157,1.092-2.301,1.092C18.329,49.254,17.068,47.825,17.068,45.953z"/>
		<path d="M25.011,49.099v-5.421h-1.82v-0.858h4.628v0.858h-1.833v5.421H25.011z"/>
		<path d="M28.729,45.953c0-1.82,1.3-3.289,3.094-3.289c1.898,0,3.016,1.482,3.016,3.367v0.247h-5.083
			c0.078,1.183,0.91,2.171,2.262,2.171c0.715,0,1.443-0.286,1.938-0.793l0.468,0.637c-0.624,0.624-1.469,0.962-2.496,0.962
			C30.068,49.254,28.729,47.916,28.729,45.953z M31.81,43.469c-1.339,0-2.002,1.131-2.054,2.093h4.121
			C33.864,44.626,33.24,43.469,31.81,43.469z"/>
		<path d="M37.387,48.149v3.341h-0.975v-8.671h0.975v0.936c0.455-0.637,1.235-1.092,2.119-1.092c1.651,0,2.795,1.248,2.795,3.289
			c0,2.028-1.144,3.302-2.795,3.302C38.647,49.254,37.894,48.852,37.387,48.149z M41.274,45.953c0-1.391-0.754-2.418-2.015-2.418
			c-0.767,0-1.534,0.455-1.872,1.001v2.834c0.338,0.546,1.105,1.014,1.872,1.014C40.52,48.384,41.274,47.344,41.274,45.953z"/>
		<path d="M43.483,45.953c0-1.859,1.261-3.289,3.133-3.289c1.144,0,1.82,0.468,2.301,1.092l-0.65,0.598
			c-0.416-0.572-0.949-0.819-1.599-0.819c-1.339,0-2.171,1.027-2.171,2.418s0.832,2.431,2.171,2.431c0.65,0,1.183-0.26,1.599-0.819
			l0.65,0.598c-0.481,0.624-1.157,1.092-2.301,1.092C44.745,49.254,43.483,47.825,43.483,45.953z"/>
		<path d="M51.426,49.099v-5.421h-1.82v-0.858h4.628v0.858h-1.833v5.421H51.426z"/>
		<path d="M55.508,49.099v-6.279h3.458c1.105,0,1.768,0.663,1.768,1.612c0,0.754-0.481,1.261-1.014,1.43
			c0.637,0.156,1.144,0.819,1.144,1.534c0,1.014-0.676,1.703-1.833,1.703H55.508z M59.733,44.575c0-0.546-0.338-0.897-0.936-0.897
			h-2.314v1.768h2.314C59.408,45.445,59.733,45.068,59.733,44.575z M59.851,47.279c0-0.507-0.351-0.975-1.014-0.975h-2.353v1.937
			h2.353C59.46,48.241,59.851,47.876,59.851,47.279z"/>
		<path d="M66.636,49.099v-0.715c-0.521,0.572-1.235,0.871-2.08,0.871c-1.066,0-2.197-0.715-2.197-2.08
			c0-1.404,1.131-2.067,2.197-2.067c0.858,0,1.573,0.273,2.08,0.858v-1.131c0-0.845-0.677-1.326-1.586-1.326
			c-0.754,0-1.365,0.273-1.924,0.871l-0.455-0.676c0.676-0.702,1.482-1.04,2.509-1.04c1.326,0,2.432,0.598,2.432,2.119v4.316H66.636
			z M66.636,47.772v-1.183c-0.378-0.52-1.04-0.78-1.729-0.78c-0.91,0-1.547,0.572-1.547,1.378c0,0.793,0.637,1.365,1.547,1.365
			C65.596,48.553,66.258,48.292,66.636,47.772z"/>
	</g>
</g>
</svg>
