<?xml version="1.0" encoding="utf-8"?>
<!-- Generator: Adobe Illustrator 16.0.2, SVG Export Plug-In . SVG Version: 6.00 Build 0)  -->
<!DOCTYPE svg PUBLIC "-//W3C//DTD SVG 1.1//EN" "http://www.w3.org/Graphics/SVG/1.1/DTD/svg11.dtd">
<svg version="1.1" id="Layer_1" xmlns="http://www.w3.org/2000/svg" xmlns:xlink="http://www.w3.org/1999/xlink" x="0px" y="0px"
	 width="40.498px" height="40.498px" viewBox="0 0 40.498 40.498" enable-background="new 0 0 40.498 40.498" xml:space="preserve">
<path d="M20.249,0C9.065,0,0,9.065,0,20.249s9.065,20.249,20.249,20.249c11.184,0,20.249-9.065,20.249-20.249S31.433,0,20.249,0z
	 M24.55,18.954l-0.041,0.012c-0.082,0.021-2.445,0.001-2.451,0.001c-0.008,0.013-0.008,0.008-0.016,0.038
	c-0.01,0.046-0.002,2.212-0.002,2.245c0,2.481,0.023,4.389,0,6.852h-3.724l-0.003-8.588c0-0.076,0.026-0.483-0.02-0.541
	l-1.855-0.003l-0.004-3.148l1.871-0.001c0.1-4.615,0.491-4.35,1.141-5.133c0.564-0.48,1.344-0.769,2.311-0.833
	c0.508-0.033,1.029-0.022,1.545-0.022c0.496,0,1.07-0.027,1.557,0.002l0.004,3.145l-2.566,0.258c-0.252,0.232-0.24,0.756-0.242,1.18
	c0,0.465-0.014,0.941-0.002,1.403h2.826L24.55,18.954z"/>
</svg>
