<?xml version="1.0" encoding="utf-8"?>
<!-- Generator: Adobe Illustrator 16.0.2, SVG Export Plug-In . SVG Version: 6.00 Build 0)  -->
<!DOCTYPE svg PUBLIC "-//W3C//DTD SVG 1.1//EN" "http://www.w3.org/Graphics/SVG/1.1/DTD/svg11.dtd">
<svg version="1.1" id="Layer_1" xmlns="http://www.w3.org/2000/svg" xmlns:xlink="http://www.w3.org/1999/xlink" x="0px" y="0px"
	 width="40.498px" height="40.498px" viewBox="0 0 40.498 40.498" enable-background="new 0 0 40.498 40.498" xml:space="preserve">
<path d="M20.249,0C9.066,0,0,9.065,0,20.249s9.066,20.249,20.249,20.249c11.184,0,20.249-9.065,20.249-20.249S31.433,0,20.249,0z
	 M26.833,22.42c1.335,1.229,2.266,2.23,2.793,3.003c0.246,0.387,0.324,0.729,0.237,1.028c-0.088,0.298-0.29,0.447-0.606,0.447
	l-3.478,0.158c-0.491,0.035-1.089-0.264-1.791-0.896c-0.703-0.632-1.177-1.159-1.423-1.581c-0.141-0.246-0.396-0.386-0.764-0.422
	c-0.369-0.035-0.606,0.141-0.712,0.527l-0.105,1.37c-0.035,0.28-0.142,0.491-0.315,0.632c-0.176,0.142-0.326,0.221-0.448,0.238
	c-0.123,0.017-0.325,0.043-0.606,0.078c-0.913,0.035-1.712-0.008-2.397-0.132c-0.685-0.123-1.309-0.377-1.87-0.764
	c-0.563-0.386-1.01-0.737-1.344-1.054s-0.816-0.825-1.449-1.528c-1.721-2.459-3.003-4.585-3.846-6.375
	c-0.316-0.703-0.492-1.301-0.527-1.792c0.141-0.141,0.404-0.229,0.791-0.264c0.386-0.035,0.947-0.044,1.686-0.027
	c0.737,0.02,1.176,0.027,1.316,0.027c0.352-0.035,0.633,0.158,0.844,0.58c0.878,1.967,1.739,3.494,2.582,4.584
	c0.563,0.526,0.931,0.439,1.106-0.264c0.07,0,0.105-0.861,0.105-2.582c0.034-1.09-0.404-1.773-1.317-2.055
	c0.211-0.563,0.949-0.844,2.213-0.844c0.316,0,0.703,0.018,1.16,0.053c0.455,0.035,0.702,0.053,0.736,0.053
	c1.055,0,1.582,0.422,1.582,1.266c-0.001,0.104-0.019,0.36-0.053,0.764c-0.036,0.403-0.063,0.79-0.08,1.159
	s-0.026,0.755-0.026,1.159s0.053,0.746,0.159,1.027c0.104,0.281,0.245,0.457,0.421,0.527c0.192-0.142,0.378-0.272,0.553-0.396
	c0.177-0.124,0.36-0.325,0.554-0.606s0.342-0.491,0.448-0.633c0.104-0.141,0.263-0.402,0.474-0.789s0.334-0.633,0.369-0.738
	s0.158-0.377,0.369-0.816s0.315-0.658,0.315-0.658l0.079-0.158c0.141-0.316,0.255-0.501,0.343-0.554s0.308-0.079,0.658-0.079h3.268
	c0.386,0,0.614,0.009,0.685,0.026s0.176,0.097,0.316,0.237c0.246,0.316,0.026,1.001-0.66,2.055
	c-0.684,1.054-1.342,1.933-1.975,2.635C26.324,21.033,26.201,21.822,26.833,22.42z"/>
</svg>
