<?xml version="1.0" encoding="utf-8"?>
<!-- Generator: Adobe Illustrator 16.0.2, SVG Export Plug-In . SVG Version: 6.00 Build 0)  -->
<!DOCTYPE svg PUBLIC "-//W3C//DTD SVG 1.1//EN" "http://www.w3.org/Graphics/SVG/1.1/DTD/svg11.dtd">
<svg version="1.1" id="Layer_1" xmlns="http://www.w3.org/2000/svg" xmlns:xlink="http://www.w3.org/1999/xlink" x="0px" y="0px"
	 width="40.498px" height="40.498px" viewBox="0 0 40.498 40.498" enable-background="new 0 0 40.498 40.498" xml:space="preserve">
<g>
	<path d="M26.378,11.719l-2.127-0.001l-4.257,0.001l-4.224-0.001l-2.112,0.001c-1.049,0.001-1.653,0.584-1.656,1.599
		c-0.012,4.271-0.012,8.542,0,12.814c0.003,1.007,0.576,1.587,1.572,1.591c4.286,0.016,8.575,0.017,12.859,0.002
		c0.992-0.003,1.584-0.61,1.584-1.624c0.006-4.258,0.006-8.514,0-12.769C28.018,12.308,27.42,11.72,26.378,11.719z M23.313,13.863
		c0.006-0.421,0.244-0.629,0.656-0.632c0.629-0.007,1.258-0.009,1.885,0c0.42,0.005,0.643,0.241,0.652,0.648
		c0.014,0.628,0.014,1.257,0,1.885c-0.01,0.433-0.256,0.659-0.693,0.663c-0.313,0.003-0.627,0-0.941,0
		c-0.299,0.001-0.596,0.006-0.896,0c-0.406-0.01-0.654-0.212-0.662-0.631C23.301,15.151,23.305,14.508,23.313,13.863z M19.98,16.475
		c1.787-0.016,3.246,1.427,3.26,3.227c0.014,1.799-1.424,3.25-3.223,3.254c-1.797,0.004-3.232-1.433-3.234-3.238
		C16.781,17.94,18.213,16.49,19.98,16.475z M26.51,18.915c0,2.144,0.002,4.288,0,6.432c0,0.668-0.18,0.868-0.822,0.868
		c-3.785,0.006-7.568,0.006-11.352,0.002c-0.602-0.002-0.83-0.211-0.83-0.776c-0.008-2.239-0.004-4.477-0.002-6.718
		c0-0.075,0.018-0.15,0.029-0.252c0.453,0,0.885,0,1.359,0c-0.375,2.014,0.105,3.764,1.629,5.154c1.088,0.994,2.4,1.432,3.867,1.332
		c2.799-0.193,5.441-2.766,4.742-6.496c0.459,0,0.881,0,1.379,0C26.51,18.614,26.51,18.765,26.51,18.915z"/>
	<path d="M20.248,0C9.066,0,0,9.065,0,20.249s9.066,20.249,20.248,20.249c11.184,0,20.25-9.065,20.25-20.249S31.432,0,20.248,0z
		 M29.018,26.102c0,1.563-1.037,2.618-2.58,2.623c-2.073,0.007-4.146,0.01-6.22,0.01c-2.216,0-4.432-0.004-6.647-0.012
		c-1.531-0.006-2.563-1.046-2.568-2.588c-0.012-4.275-0.012-8.546,0-12.82c0.005-1.575,1.047-2.594,2.655-2.596l2.113-0.001
		l4.224,0.001l4.257-0.001l2.128,0.001c1.604,0.002,2.639,1.028,2.639,2.612C29.023,17.587,29.023,21.843,29.018,26.102z"/>
</g>
</svg>
